<svg width="19" height="19" viewBox="0 0 19 19" fill="none" xmlns="http://www.w3.org/2000/svg">
<g clip-path="url(#clip0_4_243)">
<path d="M9.25 7.86365V11.3491H14.0936C13.8809 12.47 13.2427 13.4191 12.2854 14.0573L15.2063 16.3237C16.9081 14.7528 17.89 12.4455 17.89 9.70465C17.89 9.06648 17.8327 8.45278 17.7263 7.86375L9.25 7.86365Z" fill="#4285F4"/>
<path d="M4.20596 11.213L3.54719 11.7173L1.21533 13.5336C2.69624 16.4709 5.73147 18.5 9.24962 18.5C11.6796 18.5 13.7168 17.6982 15.2059 16.3237L12.285 14.0573C11.4832 14.5973 10.4605 14.9246 9.24962 14.9246C6.90963 14.9246 4.92151 13.3455 4.20964 11.2182L4.20596 11.213Z" fill="#34A853"/>
<path d="M1.21538 5.46631C0.601781 6.67717 0.25 8.04355 0.25 9.49989C0.25 10.9562 0.601781 12.3226 1.21538 13.5335C1.21538 13.5416 4.20998 11.2098 4.20998 11.2098C4.02998 10.6698 3.92359 10.0971 3.92359 9.4998C3.92359 8.90245 4.02998 8.32975 4.20998 7.78976L1.21538 5.46631Z" fill="#FBBC05"/>
<path d="M9.24981 4.08363C10.5753 4.08363 11.7534 4.5418 12.6943 5.42545L15.2716 2.84821C13.7089 1.39187 11.6798 0.5 9.24981 0.5C5.73165 0.5 2.69624 2.52091 1.21533 5.46637L4.20984 7.79001C4.92161 5.66271 6.90982 4.08363 9.24981 4.08363Z" fill="#EA4335"/>
</g>
<defs>
<clipPath id="clip0_4_243">
<rect width="18" height="18" fill="white" transform="translate(0.25 0.5)"/>
</clipPath>
</defs>
</svg>
